<svg id="레이어_1" data-name="레이어 1" xmlns="http://www.w3.org/2000/svg" viewBox="0 0 1870.66 678.54"><defs><style>.cls-1{fill:#2b5fff;}</style></defs><path class="cls-1" d="M917.1,678.54q-.17-334.06-.3-668.13C916.8-1.3,914.92.23,927.27,0c7-.11,14,.16,21.05,0,3.66-.09,5.11,1.34,4.87,4.92-.15,2.1,0,4.21,0,6.31q-.21,328.11-.38,656.2c0,3.69-.73,7.49.82,11.09Z"/><path class="cls-1" d="M834.25,678.54q-.06-155.82-.12-311.64,0-177.22-.22-354.45c0-6.92,1.25-10.15,9-9.71,7,.4,14-.57,21-1.16,3.69-.31,5.15,1.11,4.92,4.74-.15,2.33,0,4.68,0,7q-.21,327.44-.38,654.87c0,3.45-.81,7,1,10.34Z"/><path class="cls-1" d="M751.4,678.54q0-104.56,0-209.13,0-224.57-.28-449.13c0-6.78,1.59-9.59,8.53-9.79a189.44,189.44,0,0,0,21.61-2.3c3.89-.57,5.16.84,4.91,4.47-.12,1.86,0,3.74,0,5.61q-.21,324.91-.37,649.84c0,3.48-.6,7,.7,10.43Z"/><path class="cls-1" d="M668.55,678.54c.09-3.27.27-6.54.26-9.81q-.12-316.87-.5-633.75c0-7.76,2.48-10.7,9.46-11.68s13.84-2.25,20.71-3.6c3.57-.7,5.4.1,5,4.1-.18,2.08,0,4.2,0,6.31q-.16,319.32-.32,638.66c0,3.25.32,6.51.49,9.77Z"/><path class="cls-1" d="M1001.35,678.54q-.06-168.49-.12-337-.06-165.69-.24-331.37c0-7.06,1.54-9.62,8.81-8.58a188.23,188.23,0,0,0,21,1.39c3.6.12,5.14,1.54,4.89,5.09-.1,1.39,0,2.8,0,4.21q-.23,329.61-.45,659.22c0,2.34-.12,4.68-.18,7Z"/><path class="cls-1" d="M1084.2,678.54l-.33-659.67c0-1.87.12-3.75,0-5.61-.27-3.76.74-5.63,5.1-5,8.32,1.22,16.69,2.15,25.07,2.93,3.3.3,4.57,1.71,4.3,4.86-.08.93,0,1.87,0,2.81l-.42,659.67Z"/><path class="cls-1" d="M585.7,678.54c.14-3.27.41-6.53.41-9.79Q586,360.88,585.6,53c0-7.7,2.23-10.82,9.53-11.93a188.54,188.54,0,0,0,21.15-5c3.61-1,4.7.1,4.5,3.53-.13,2.1,0,4.22,0,6.32q-.15,311.39-.29,622.76c0,3.27.22,6.54.34,9.81Z"/><path class="cls-1" d="M1248.5,678.54c1.52-3.36.82-6.92.82-10.39q-.15-309.81-.38-619.64c0-2.33.14-4.68,0-7-.33-4.64,2.09-5.81,6.06-4.89,8.42,2,16.81,4,25.23,6,2.84.65,3.71,2.37,3.54,5.08-.12,2.09,0,4.2,0,6.31q-.15,307.71-.27,615.43c0,3,.08,6.08.13,9.12Z"/><path class="cls-1" d="M1167.05,678.54q-.22-105.64-.43-211.27-.16-218.31-.2-436.6c0-2.34.11-4.68,0-7-.15-3.48,1.41-4.53,4.72-3.92,8.74,1.6,17.49,3.09,26.25,4.57,2.47.41,3.69,1.69,3.6,4.26-.08,2.34,0,4.68,0,7L1200.7,668c0,3.51,0,7,0,10.53Z"/><path class="cls-1" d="M1331.34,678.54c.2-3.25.58-6.5.58-9.75q-.14-301.47-.33-602.93c0-9.17,0-9.2,8.52-6.59,7.37,2.26,14.67,4.76,22.08,6.87,3.28.93,4.69,2.6,4.34,6a55.22,55.22,0,0,0,0,5.61q-.13,295.5-.26,591c0,3.27.14,6.55.21,9.82Z"/><path class="cls-1" d="M502.85,678.54c1.39-4.11.7-8.36.7-12.53q-.15-294.4-.52-588.8c0-7.19,1.4-11.18,9.06-12.62,6.84-1.28,13.47-3.81,20.07-6.16,4.89-1.73,6-.09,5.93,4.65-.19,22-.08,44-.09,66q-.12,270.89-.25,541.78c0,2.57.14,5.14.21,7.71Z"/><path class="cls-1" d="M1579.89,678.54q0-80,0-160,0-175.42-.12-350.85V158c14.14,7.92,27.12,15.15,40,22.47,3.11,1.77,2,5,2,7.65q.06,58.95,0,117.89-.12,181.38-.25,362.77c0,3.26.27,6.53.41,9.79Z"/><path class="cls-1" d="M248.69,678.54q-.23-104.56-.43-209.12-.15-140-.31-280c0-5.93,1.66-9.39,7-12.09,10.2-5.19,20.11-11,30.07-16.6,3.38-1.91,5.19-1.72,4.81,2.72-.06.69,0,1.4,0,2.1l-.39,513Z"/><path class="cls-1" d="M1414.19,678.54c.14-4,.41-7.93.41-11.9q-.13-286-.3-572c0-1.87.14-3.75,0-5.61-.4-4.39,1.52-4.5,4.94-3.13,8.67,3.48,17.41,6.79,26.17,10,2.76,1,4.2,2.61,3.89,5.71-.21,2.08,0,4.2,0,6.31q-.15,280.76-.29,561.51c0,3,.22,6.06.34,9.1Z"/><path class="cls-1" d="M421.41,678.54c-.13-26.68-.36-53.35-.38-80q-.22-245-.34-490c0-13.51-1.63-10.11,10.57-15.21,6.47-2.7,13.15-4.89,19.63-7.56,3.5-1.45,4.64-.49,4.38,3.11-.16,2.09,0,4.21,0,6.31q-.14,287.15-.26,574.27c0,3.05.08,6.09.13,9.13Z"/><path class="cls-1" d="M1497,678.54c.09-13.1.25-26.19.24-39.28q-.09-256.5-.23-513c0-8.68,0-8.7,7.92-5,6.37,2.93,12.57,6.31,19.11,8.76,6.11,2.3,8.08,5.81,8.06,12.47q-.42,147.36-.29,294.73-.07,116.15-.2,232.28c0,3,.33,6,.5,9.07Z"/><path class="cls-1" d="M338.56,678.54q-.21-168.09-.42-336.17c-.06-66.91,0-133.81-.22-200.72,0-6.09,1.78-9.31,7.43-11.46a158.72,158.72,0,0,0,20.32-9.45c6.34-3.51,7.52-1.16,6.87,4.77a60.34,60.34,0,0,0,0,6.31q-.13,273.36-.25,546.72Z"/><path class="cls-1" d="M1669.76,678.54q.06-53.68.12-107.35,0-175.44-.14-350.86c0-1.64,0-3.27,0-4.91,0-3.19,1.25-3.69,3.79-2,9.51,6.38,19,12.79,28.57,19.08,3.24,2.14,2.45,5.31,2.45,8.24q0,76.49,0,153-.1,137.88-.22,275.77c0,3,.38,6,.58,9Z"/><path class="cls-1" d="M165.84,678.54q-.18-219.33-.45-438.64c0-4.17,1.08-6.92,4.73-9.2,8.13-5.07,16-10.61,24-15.87,1.47-1,3-3.1,4.84-1.9,1.72,1.08.87,3.43.87,5.21q0,51.59,0,103.17l-.27,357.23Z"/><path class="cls-1" d="M1752.61,678.54q0-132.69,0-265.36,0-67.4,0-134.79V269c11.86,9.44,22.4,17.77,32.84,26.22,3,2.46,1.8,6.12,1.8,9.26q0,156.2-.23,312.4c0,17.78-.06,35.57,0,53.35,0,2.78-.51,5.64.84,8.29Z"/><path class="cls-1" d="M83,678.54q-.1-186.75-.34-373.48c0-6.24,1.67-10.43,6.69-14.11,9-6.57,17.55-13.69,26.3-20.59,2.18,2.45,1.47,4.64,1.47,6.62q-.12,199.72-.33,399.45c0,.7-.06,1.41-.09,2.11Z"/><path class="cls-1" d="M1835.46,678.54V340.38c5.34,2.21,8.34,6.45,11.92,9.81,7.33,6.88,16.54,12.94,20.92,21.44s1.29,19.72,1.29,29.73q0,134.39-.25,268.76c0,2.81-.12,5.61-.18,8.42Z"/><path class="cls-1" d="M.14,678.54q0-129.09,0-258.18c0-14.26.11-28.53-.1-42.79a12,12,0,0,1,4-9.84c9.69-9,19.14-18.28,28.71-27.49,2.49,2.29,1.75,4.51,1.74,6.47q-.12,163.46-.35,326.93c0,1.63-.17,3.26-.26,4.9Z"/></svg>