<svg id="레이어_1" data-name="레이어 1" xmlns="http://www.w3.org/2000/svg" viewBox="0 0 257.75 152.63"><defs><style>.cls-1{fill:#2c5ffe;}</style></defs><path class="cls-1" d="M120,57.21c10.89,7.88,14.93,18.63,12.28,33.46l12.62-9.11c23.19-16.78,56.35-16.63,78.19,1.84,9.3,7.87,18.91,9.08,29.86,7.95,1.68-.18,4-1.94,4.7.83.63,2.51-2.17,2.76-3.72,3.33-13.32,4.85-27.07,7.39-41.27,6.23C196,100.39,182.8,105.89,172.05,119c-13.37,16.32-30.35,27.64-51.23,32.3-35.27,7.88-75.31-20.87-79.08-56.75-.37-3.45-.2-5.94-5.29-5.8C12.54,89.43-.33,78.56,0,58.64.37,37.28,17.25,22,39.43,23.2c3.93.21,8.16.45,11.67,2,5.56,2.48,7.81.23,10.95-4.13C73.5,5.16,89.22-2,108.89.47c17.45,2.16,30.58,19.31,28.21,36.69C136,45.62,132.43,49.78,120,57.21ZM236,95.67c-6.5-1.76-12.35-4.7-18.54-6.61-21.18-6.53-40.66-3.27-57.85,11.08-7.18,6-14.12,12.27-21,18.56A44.78,44.78,0,0,1,118.18,129c-16.46,3.88-33.93-3.83-44.7-19.61-8.68-12.71-7.91-26.87,2.94-41.56,3-4.12,2.33-7.81,1.13-11.83C71.43,35.43,51.1,23.47,29.88,27.79,16.66,30.48,8.34,38.35,4.77,51.28c-3,11,.58,22.6,9,29.07,7.36,5.7,23.17,6.76,31.43,2.1,6.63-3.74,9.11-14.32,4.91-21a10.14,10.14,0,0,0-5.93-4.66c-4.48-1.2-6.82,2-9.33,4.81a1.73,1.73,0,0,1-2.46.46c-1.4-1.22-.53-2.63.26-3.72C35,55,38.21,52.45,42.5,52.61c5,.19,8.77,3,11.23,7.37,4.51,8,2.41,19-4.93,24.65-2.43,1.86-3.83,3.48-3.65,6.8,1.67,32.19,37.76,61.85,69.5,57,22.91-3.49,40.83-15.51,55.33-32.93C181.26,102,195.35,96.23,212.73,98,220.64,98.87,228.34,97.73,236,95.67ZM216,84c-16.55-13.34-47.15-13.88-64.58-2.21a190.55,190.55,0,0,0-26,20.26c-5.58,5.34-11.83,7-19.29,5.29s-12.07-5.88-12.6-12.14,3.58-12.53,10.12-15.4c1.49-.65,3.23-1.79,4.24.17.76,1.49-.89,2.31-2.07,3.12-2.11,1.45-4.41,2.78-6.08,4.65a9,9,0,0,0,1.43,13.54c4.91,3.66,13.7,4.11,18.52.37,7.43-5.76,10.34-13.73,9.35-22.93-.91-8.46-4.92-15.41-13-18.54-13.3-5.11-24.93-.35-35,8.26C72.25,76,69.3,91,73.53,101.39a39,39,0,0,0,61.36,15.29c7.87-6.63,15.47-13.58,23.21-20.37,8.13-7.13,17.77-11,28.24-13.2C195.66,81.12,204.91,82,216,84ZM94.39,56c-8.21-11.39-7.13-22.22,2.77-26.83,2.27-1.06,6-3.82,7.34-.69,1.63,3.66-3.23,2.78-5.13,3.76-5,2.6-7.34,6.48-6.66,11.94.59,4.74,2.9,8.87,8,9.4,6.7.69,13.58,1.18,20.07-1.57,7.81-3.3,12.21-9,12.52-17.73.51-14.11-8.58-26.1-22.92-29.56C94.49.9,81.47,6.6,70.15,17.36c-3.23,3.07-7.07,6.38-7.52,10.69-.36,3.49,4.78,4.37,7,7,5.11,5.9,9.37,12.23,11.57,19.8.61,2.11,1.26,4.21,2,6.53ZM216.58,83.47l-.5.42c.15.16.29.43.44.44s.33-.25.5-.39Z"/></svg>