<svg xmlns="http://www.w3.org/2000/svg" width="65" height="41.909" viewBox="0 0 65 41.909">
  <path id="패스_182" data-name="패스 182" d="M545.537,349.525a2.93,2.93,0,1,0-4.936,2.126h-2.409v-15.9q0-8.554-8.382-8.554a10.248,10.248,0,0,0-3.186.459,8.351,8.351,0,0,0-2.44,1.234,7.855,7.855,0,0,0-1.723,1.751,9.374,9.374,0,0,0-1.091,2.009h-.115a6.169,6.169,0,0,0-2.9-4.191,10.065,10.065,0,0,0-5.081-1.263,9.235,9.235,0,0,0-5.482,1.608,9.99,9.99,0,0,0-3.473,5.052h-.115v-6.028H489.895v-7.98q0-4.362,1.722-6.43a5.163,5.163,0,0,1,4.076-2.067,5.474,5.474,0,0,1,2.124.431,1.658,1.658,0,0,1,1.033,1.694c0,.05-.008.1-.01.147a2.922,2.922,0,1,0,4.1,3.463,3.443,3.443,0,0,0,.218-1.2,4.427,4.427,0,0,0-.4-1.694,5.17,5.17,0,0,0-1.263-1.751,7.131,7.131,0,0,0-2.21-1.349,8.652,8.652,0,0,0-3.244-.545,8.809,8.809,0,0,0-4.765,1.407,14.535,14.535,0,0,0-3.731,3.3,9.62,9.62,0,0,0-1.034,1.521,10.334,10.334,0,0,0-.8,1.952,16.412,16.412,0,0,0-.545,2.583,25.814,25.814,0,0,0-.2,3.473v3.043h-4.421v.8h4.421v23.021h-4.421v.8h28.2v-.8h-4.42V338.906a13.554,13.554,0,0,1,.832-5.052,10.438,10.438,0,0,1,2.067-3.358,7.971,7.971,0,0,1,2.67-1.895,6.87,6.87,0,0,1,2.641-.6,3.448,3.448,0,0,1,2.756,1.205,5.643,5.643,0,0,1,1.033,3.732v18.715H511.9v.8h13.778v-.8h-4.421V337.012a10.378,10.378,0,0,1,.718-4.019,8.114,8.114,0,0,1,1.866-2.813,7.7,7.7,0,0,1,2.583-1.636,8.038,8.038,0,0,1,2.871-.545,3.863,3.863,0,0,1,2.9,1.091,4.182,4.182,0,0,1,1.062,3.043v19.519h-4.42v.8h13.778A2.929,2.929,0,0,0,545.537,349.525Zm-46.154,2.126h-9.489V328.63h9.489Z" transform="translate(-480.537 -310.546)" fill="#1a1a1a"/>
</svg>
