<svg xmlns="http://www.w3.org/2000/svg" width="128" height="128" viewBox="0 0 128 128">
  <g id="그룹_48" data-name="그룹 48" transform="translate(0.374 0.393)">
    <circle id="타원_13" data-name="타원 13" cx="64" cy="64" r="64" transform="translate(-0.374 -0.393)" fill="#ef9a9a"/>
    <g id="그룹_49" data-name="그룹 49" transform="translate(9.985 9.059)">
      <path id="패스_310" data-name="패스 310" d="M1816.493,516.4a2.5,2.5,0,0,1-.861-.438,4.43,4.43,0,0,1-.791-.774,3.262,3.262,0,0,1-.853-2.282,2.923,2.923,0,0,1,1.238-2.042l2.686-2.155-.81-1.009,1.459-1.17.809,1.008,1.592-1.276,1.521,1.895-1.592,1.278,1.306,1.629-1.458,1.169-1.307-1.628-2.661,2.135a1.148,1.148,0,0,0-.468.725,1.009,1.009,0,0,0,.258.782,1.563,1.563,0,0,0,.858.57Z" transform="translate(-1725.419 -487.379)" fill="#fff"/>
      <path id="패스_311" data-name="패스 311" d="M1829.948,524.16l-7.38,3.977-1.093-2.03.878-.473a3.23,3.23,0,0,1-1.281-.62,3.628,3.628,0,0,1-.942-1.139,3.574,3.574,0,0,1-.405-2.756,3.787,3.787,0,0,1,2.025-2.188l4.171-2.247,1.152,2.14-3.855,2.076q-1.783.961-.977,2.456a1.827,1.827,0,0,0,1.167.966,2.4,2.4,0,0,0,1.739-.336l3.649-1.966Z" transform="translate(-1727.231 -490.739)" fill="#fff"/>
      <path id="패스_312" data-name="패스 312" d="M1833.645,535.72a4.368,4.368,0,0,1,.819,1.529l-2.136.687q-.094-.4-.137-.529a2.231,2.231,0,0,0-1.057-1.378,2.358,2.358,0,0,0-1.85-.027l-3.768,1.212-.744-2.314,7.981-2.567.711,2.211-1.053.339A2.7,2.7,0,0,1,1833.645,535.72Z" transform="translate(-1728.898 -495.786)" fill="#fff"/>
      <path id="패스_313" data-name="패스 313" d="M1836.095,550.858a3.71,3.71,0,0,1-2.627,1.308l-4.76.618-.313-2.41,4.389-.571a2.179,2.179,0,0,0,1.419-.625,1.6,1.6,0,0,0,.324-1.314,1.933,1.933,0,0,0-.752-1.379,2.358,2.358,0,0,0-1.747-.323l-4.11.534-.313-2.41,8.313-1.081.3,2.3-.973.126a3.231,3.231,0,0,1,.966,1.085,4.174,4.174,0,0,1,.488,1.524A3.45,3.45,0,0,1,1836.095,550.858Z" transform="translate(-1729.812 -499.292)" fill="#fff"/>
      <path id="패스_314" data-name="패스 314" d="M1828.644,567.594a4.117,4.117,0,0,1,1.8-1.344,4.487,4.487,0,0,1,4.385.794,4.111,4.111,0,0,1,1.218,1.891,5.365,5.365,0,0,1-.845,4.669,4.12,4.12,0,0,1-1.8,1.337,4.485,4.485,0,0,1-4.385-.794,4.13,4.13,0,0,1-1.219-1.883,5.364,5.364,0,0,1,.845-4.669Zm1.343,4.218a2.684,2.684,0,0,0,3.327.6,2.027,2.027,0,0,0,.895-1.4,2.055,2.055,0,0,0-.346-1.63,2.657,2.657,0,0,0-3.328-.6,2.051,2.051,0,0,0-.9,1.405A2.027,2.027,0,0,0,1829.987,571.812Z" transform="translate(-1729.805 -506.639)" fill="#fff"/>
      <path id="패스_315" data-name="패스 315" d="M1828.626,589.81a3.708,3.708,0,0,1-2.928-.2l-4.422-1.866.946-2.24,4.076,1.72a2.183,2.183,0,0,0,1.541.177,1.6,1.6,0,0,0,.943-.972,1.935,1.935,0,0,0,.046-1.57,2.358,2.358,0,0,0-1.345-1.16l-3.819-1.612.945-2.239,7.724,3.26-.9,2.139-.9-.381a3.224,3.224,0,0,1,.287,1.423,4.179,4.179,0,0,1-.346,1.562A3.455,3.455,0,0,1,1828.626,589.81Z" transform="translate(-1727.771 -511.111)" fill="#fff"/>
      <path id="패스_316" data-name="패스 316" d="M1815.771,609.322l-4.356-8.633a4.382,4.382,0,0,1-.64-2.406,3.5,3.5,0,0,1,.869-1.948,4.3,4.3,0,0,1,.989-.857,2.852,2.852,0,0,1,1.1-.436l.748,1.795a2.08,2.08,0,0,0-.715.243,2,2,0,0,0-.575.463,1.282,1.282,0,0,0-.338.775,2.042,2.042,0,0,0,.251.946l.039.075,8.8,2.674-1.619,1.917-5.863-1.871,2.817,5.479Z" transform="translate(-1724.381 -516.01)" fill="#fff"/>
      <path id="패스_317" data-name="패스 317" d="M1804.949,610.248a4.1,4.1,0,0,1,2.241.178,4.482,4.482,0,0,1,2.775,3.487,4.112,4.112,0,0,1-.331,2.224,5.361,5.361,0,0,1-3.713,2.954,4.12,4.12,0,0,1-2.236-.183,4.485,4.485,0,0,1-2.774-3.487,4.118,4.118,0,0,1,.325-2.22,5.366,5.366,0,0,1,3.713-2.954Zm-1.771,4.057a2.683,2.683,0,0,0,2.106,2.646,2.024,2.024,0,0,0,1.594-.461,2.054,2.054,0,0,0,.815-1.455,2.657,2.657,0,0,0-2.106-2.646,2.055,2.055,0,0,0-1.6.467A2.026,2.026,0,0,0,1803.178,614.305Z" transform="translate(-1721.192 -520.889)" fill="#fff"/>
      <path id="패스_318" data-name="패스 318" d="M1789.528,628.706l-3.674-7.535,2.074-1.011.437.9a3.216,3.216,0,0,1,.671-1.255,3.627,3.627,0,0,1,1.175-.894,3.573,3.573,0,0,1,2.771-.293,3.787,3.787,0,0,1,2.1,2.112l2.075,4.258-2.185,1.065-1.919-3.936q-.888-1.821-2.414-1.076a1.822,1.822,0,0,0-1.012,1.125,2.4,2.4,0,0,0,.264,1.752l1.816,3.725Z" transform="translate(-1716.347 -523.561)" fill="#fff"/>
      <path id="패스_319" data-name="패스 319" d="M1780.553,631.973a4.378,4.378,0,0,1-1.561.757l-.6-2.162c.266-.053.443-.091.534-.116a2.227,2.227,0,0,0,1.419-1,2.359,2.359,0,0,0,.1-1.847l-1.059-3.814,2.342-.65,2.243,8.078-2.237.621-.3-1.066A2.7,2.7,0,0,1,1780.553,631.973Z" transform="translate(-1713.94 -525.072)" fill="#fff"/>
      <path id="패스_320" data-name="패스 320" d="M1764.226,626.455a5.32,5.32,0,0,1,1.6.611l-.771,1.763a5.076,5.076,0,0,0-1.368-.555,5.676,5.676,0,0,0-1.563-.191q-1.543.035-1.526.8a.542.542,0,0,0,.432.5,6.287,6.287,0,0,0,1.3.236,12.461,12.461,0,0,1,1.705.32,2.634,2.634,0,0,1,1.177.692,2.035,2.035,0,0,1,.523,1.453,2.291,2.291,0,0,1-.428,1.421,2.964,2.964,0,0,1-1.319.988,5.724,5.724,0,0,1-2.072.388,8.138,8.138,0,0,1-1.772-.155,4.953,4.953,0,0,1-1.469-.505l.772-1.747a4.834,4.834,0,0,0,2.428.57,2.465,2.465,0,0,0,1.164-.244.64.64,0,0,0,.376-.57.558.558,0,0,0-.432-.536,7.544,7.544,0,0,0-1.347-.266,14.414,14.414,0,0,1-1.69-.328,2.535,2.535,0,0,1-1.153-.684,2.017,2.017,0,0,1-.515-1.422,2.22,2.22,0,0,1,.437-1.4,2.983,2.983,0,0,1,1.342-.972,6.08,6.08,0,0,1,2.119-.382A8.12,8.12,0,0,1,1764.226,626.455Z" transform="translate(-1707.454 -526.073)" fill="#fff"/>
      <path id="패스_321" data-name="패스 321" d="M1748.442,625.694a2.488,2.488,0,0,1,.926-.277,4.412,4.412,0,0,1,1.106.014,3.264,3.264,0,0,1,2.193,1.064,2.92,2.92,0,0,1,.514,2.332l-.455,3.413,1.282.171-.248,1.853-1.281-.171-.271,2.024-2.409-.322.27-2.024-2.07-.276.247-1.854,2.07.277.452-3.383a1.146,1.146,0,0,0-.162-.847,1.013,1.013,0,0,0-.727-.387,1.56,1.56,0,0,0-1.014.18Z" transform="translate(-1704.138 -525.797)" fill="#fff"/>
      <path id="패스_322" data-name="패스 322" d="M1741.492,624.312a4.115,4.115,0,0,1,1.106,1.958,4.49,4.49,0,0,1-1.34,4.251,4.107,4.107,0,0,1-2.029.969,5.368,5.368,0,0,1-4.526-1.426,4.133,4.133,0,0,1-1.1-1.957,4.488,4.488,0,0,1,1.34-4.251,4.133,4.133,0,0,1,2.022-.971,5.362,5.362,0,0,1,4.526,1.427Zm-4.354.8a2.68,2.68,0,0,0-1.016,3.225,2.024,2.024,0,0,0,1.273,1.063,2.051,2.051,0,0,0,1.661-.138,2.656,2.656,0,0,0,1.017-3.226,2.053,2.053,0,0,0-1.282-1.065A2.023,2.023,0,0,0,1737.138,625.113Z" transform="translate(-1699.459 -524.966)" fill="#fff"/>
      <path id="패스_323" data-name="패스 323" d="M1723.224,625.476a4.36,4.36,0,0,1-1.656-.516l1.043-1.987c.23.143.385.238.469.281a2.221,2.221,0,0,0,1.72.242,2.359,2.359,0,0,0,1.339-1.276l1.84-3.5,2.152,1.129-3.895,7.423-2.056-1.079.515-.98A2.7,2.7,0,0,1,1723.224,625.476Z" transform="translate(-1695.614 -523.645)" fill="#fff"/>
      <path id="패스_324" data-name="패스 324" d="M1708.48,615.554l8.425-4.748a4.381,4.381,0,0,1,2.374-.749,3.486,3.486,0,0,1,1.986.779,4.265,4.265,0,0,1,.9.948,2.842,2.842,0,0,1,.485,1.081l-1.757.831a2.086,2.086,0,0,0-.276-.7,2.025,2.025,0,0,0-.488-.554,1.285,1.285,0,0,0-.79-.3,2.041,2.041,0,0,0-.934.294l-.073.043-2.267,8.909-1.99-1.529,1.6-5.943-5.344,3.066Z" transform="translate(-1691.393 -520.852)" fill="#fff"/>
      <path id="패스_325" data-name="패스 325" d="M1703.146,597.14a2.487,2.487,0,0,1,.852.455,4.471,4.471,0,0,1,.777.789,3.264,3.264,0,0,1,.808,2.3,2.923,2.923,0,0,1-1.277,2.018l-2.726,2.1.79,1.024-1.481,1.142-.79-1.024-1.617,1.246L1697,605.268l1.616-1.247-1.276-1.654,1.481-1.142,1.275,1.652,2.7-2.084a1.148,1.148,0,0,0,.481-.715,1.013,1.013,0,0,0-.243-.787,1.565,1.565,0,0,0-.846-.587Z" transform="translate(-1687.69 -516.687)" fill="#fff"/>
      <path id="패스_326" data-name="패스 326" d="M1689.011,588.488l7.456-3.834,1.054,2.051-.887.455a3.242,3.242,0,0,1,1.269.645,3.628,3.628,0,0,1,.918,1.157,3.57,3.57,0,0,1,.352,2.763,3.792,3.792,0,0,1-2.066,2.149l-4.213,2.165-1.111-2.161,3.894-2q1.8-.927,1.025-2.436a1.822,1.822,0,0,0-1.147-.987,2.4,2.4,0,0,0-1.745.3l-3.687,1.895Z" transform="translate(-1685.114 -512.66)" fill="#fff"/>
      <path id="패스_327" data-name="패스 327" d="M1685.827,579.6a4.357,4.357,0,0,1-.789-1.544l2.149-.646c.059.266.1.442.127.531a2.229,2.229,0,0,0,1.031,1.4,2.36,2.36,0,0,0,1.849.062l3.791-1.138.7,2.328-8.028,2.412-.669-2.223,1.06-.318A2.706,2.706,0,0,1,1685.827,579.6Z" transform="translate(-1683.833 -510.325)" fill="#fff"/>
      <path id="패스_328" data-name="패스 328" d="M1683.941,562.581a3.709,3.709,0,0,1,2.652-1.257l4.77-.526.267,2.416-4.4.485a2.183,2.183,0,0,0-1.431.6,1.6,1.6,0,0,0-.349,1.309,1.933,1.933,0,0,0,.725,1.393,2.353,2.353,0,0,0,1.741.357l4.12-.454.266,2.415-8.333.92-.254-2.308.976-.108a3.228,3.228,0,0,1-.945-1.1,4.18,4.18,0,0,1-.459-1.533A3.45,3.45,0,0,1,1683.941,562.581Z" transform="translate(-1683.259 -504.966)" fill="#fff"/>
      <path id="패스_329" data-name="패스 329" d="M1691.917,546.124a4.111,4.111,0,0,1-1.83,1.309,4.489,4.489,0,0,1-4.368-.88,4.115,4.115,0,0,1-1.18-1.915,5.024,5.024,0,0,1-.073-2.439,4.961,4.961,0,0,1,1.01-2.212,4.122,4.122,0,0,1,1.827-1.3,4.488,4.488,0,0,1,4.369.879,4.127,4.127,0,0,1,1.182,1.907,5.361,5.361,0,0,1-.936,4.651Zm-1.26-4.242a2.68,2.68,0,0,0-3.314-.668,2.024,2.024,0,0,0-.922,1.379,2.051,2.051,0,0,0,.314,1.637,2.656,2.656,0,0,0,3.315.667,2.051,2.051,0,0,0,.923-1.388A2.024,2.024,0,0,0,1690.657,541.881Z" transform="translate(-1683.611 -497.759)" fill="#fff"/>
      <path id="패스_330" data-name="패스 330" d="M1691.227,523.447a3.707,3.707,0,0,1,2.923.253l4.385,1.952-.989,2.221-4.042-1.8a2.185,2.185,0,0,0-1.537-.207,1.6,1.6,0,0,0-.962.954,1.931,1.931,0,0,0-.077,1.569,2.356,2.356,0,0,0,1.323,1.186l3.786,1.685-.988,2.222-7.659-3.41.945-2.121.9.4a3.232,3.232,0,0,1-.259-1.429,4.18,4.18,0,0,1,.377-1.555A3.448,3.448,0,0,1,1691.227,523.447Z" transform="translate(-1684.591 -492.857)" fill="#fff"/>
      <path id="패스_331" data-name="패스 331" d="M1704.438,502.239l4.188,8.716a4.385,4.385,0,0,1,.593,2.419,3.49,3.49,0,0,1-.907,1.93,4.272,4.272,0,0,1-1.005.839,2.865,2.865,0,0,1-1.111.415l-.714-1.809a2.088,2.088,0,0,0,.719-.229,2.009,2.009,0,0,0,.583-.452,1.293,1.293,0,0,0,.353-.768,2.051,2.051,0,0,0-.233-.951l-.038-.074-8.741-2.844,1.655-1.886,5.827,1.984L1702.9,504Z" transform="translate(-1688.054 -486.08)" fill="#fff"/>
      <path id="패스_332" data-name="패스 332" d="M1716.232,504.041a4.11,4.11,0,0,1-2.239-.221,4.489,4.489,0,0,1-2.706-3.541,4.1,4.1,0,0,1,.374-2.217,5.368,5.368,0,0,1,3.77-2.881,4.131,4.131,0,0,1,2.232.226,4.488,4.488,0,0,1,2.707,3.541,4.136,4.136,0,0,1-.368,2.213,5.36,5.36,0,0,1-3.769,2.881Zm1.848-4.021a2.68,2.68,0,0,0-2.053-2.687,2.023,2.023,0,0,0-1.6.43,2.049,2.049,0,0,0-.843,1.439,2.654,2.654,0,0,0,2.054,2.686,2.052,2.052,0,0,0,1.608-.435A2.027,2.027,0,0,0,1718.08,500.02Z" transform="translate(-1692.29 -483.784)" fill="#fff"/>
      <path id="패스_333" data-name="패스 333" d="M1730.951,485.314l3.529,7.6-2.091.971-.42-.9a3.234,3.234,0,0,1-.7,1.242,3.622,3.622,0,0,1-1.193.871,3.57,3.57,0,0,1-2.775.24,3.786,3.786,0,0,1-2.063-2.151l-1.994-4.3,2.2-1.023,1.843,3.971q.854,1.837,2.393,1.123a1.826,1.826,0,0,0,1.032-1.106,2.4,2.4,0,0,0-.231-1.757l-1.745-3.76Z" transform="translate(-1696.156 -480.622)" fill="#fff"/>
      <path id="패스_334" data-name="패스 334" d="M1742.75,482.556a4.36,4.36,0,0,1,1.575-.726l.558,2.173q-.4.07-.536.105a2.23,2.23,0,0,0-1.44.974,2.362,2.362,0,0,0-.137,1.845l.984,3.833-2.354.6-2.086-8.119,2.25-.579.275,1.072A2.708,2.708,0,0,1,1742.75,482.556Z" transform="translate(-1701.337 -479.498)" fill="#fff"/>
      <path id="패스_335" data-name="패스 335" d="M1757.911,488.84a5.34,5.34,0,0,1-1.6-.621l.782-1.758a5.066,5.066,0,0,0,1.365.562,5.682,5.682,0,0,0,1.562.2q1.542-.025,1.53-.789a.54.54,0,0,0-.429-.507,6.2,6.2,0,0,0-1.3-.244,12.345,12.345,0,0,1-1.7-.331,2.629,2.629,0,0,1-1.172-.7,2.043,2.043,0,0,1-.515-1.457,2.294,2.294,0,0,1,.437-1.417,2.955,2.955,0,0,1,1.324-.98,5.707,5.707,0,0,1,2.074-.376,8.122,8.122,0,0,1,1.772.166,4.978,4.978,0,0,1,1.465.513l-.782,1.743a4.833,4.833,0,0,0-2.426-.584,2.457,2.457,0,0,0-1.164.237.642.642,0,0,0-.381.567.558.558,0,0,0,.43.539,7.39,7.39,0,0,0,1.344.274,14.591,14.591,0,0,1,1.688.339,2.527,2.527,0,0,1,1.15.69,2.014,2.014,0,0,1,.506,1.425,2.214,2.214,0,0,1-.445,1.394,2.989,2.989,0,0,1-1.349.965,6.077,6.077,0,0,1-2.121.37A8.156,8.156,0,0,1,1757.911,488.84Z" transform="translate(-1706.819 -479.045)" fill="#fff"/>
      <path id="패스_336" data-name="패스 336" d="M1774.545,488.882a2.509,2.509,0,0,1-.931.259,4.447,4.447,0,0,1-1.106-.037,3.265,3.265,0,0,1-2.171-1.106,2.919,2.919,0,0,1-.468-2.342l.522-3.4-1.278-.2.284-1.848,1.279.2.31-2.018,2.4.369-.31,2.017,2.064.318-.284,1.848-2.064-.316-.518,3.373a1.146,1.146,0,0,0,.145.85,1.011,1.011,0,0,0,.719.4,1.554,1.554,0,0,0,1.018-.159Z" transform="translate(-1710.948 -478.388)" fill="#fff"/>
      <path id="패스_337" data-name="패스 337" d="M1779.91,491.331a4.11,4.11,0,0,1-1.068-1.98,4.486,4.486,0,0,1,1.423-4.223,4.108,4.108,0,0,1,2.049-.929,5.03,5.03,0,0,1,2.428.234,4.979,4.979,0,0,1,2.068,1.281,4.131,4.131,0,0,1,1.06,1.977,4.49,4.49,0,0,1-1.424,4.223,4.117,4.117,0,0,1-2.04.932,5.369,5.369,0,0,1-4.5-1.516Zm4.368-.715a2.682,2.682,0,0,0,1.08-3.2,2.024,2.024,0,0,0-1.253-1.089,2.048,2.048,0,0,0-1.663.106,2.657,2.657,0,0,0-1.081,3.2,2.052,2.052,0,0,0,1.261,1.091A2.025,2.025,0,0,0,1784.278,490.617Z" transform="translate(-1714.055 -480.243)" fill="#fff"/>
      <path id="패스_338" data-name="패스 338" d="M1798.46,490.615a4.369,4.369,0,0,1,1.646.549l-1.081,1.966q-.341-.222-.463-.291a2.232,2.232,0,0,0-1.716-.276,2.365,2.365,0,0,0-1.364,1.251l-1.906,3.469-2.131-1.171,4.038-7.346,2.035,1.118-.533.969A2.7,2.7,0,0,1,1798.46,490.615Z" transform="translate(-1718.151 -481.735)" fill="#fff"/>
      <path id="패스_339" data-name="패스 339" d="M1810.347,499.462l-8.512,4.586a4.375,4.375,0,0,1-2.389.7,3.491,3.491,0,0,1-1.97-.816,4.265,4.265,0,0,1-.884-.966,2.857,2.857,0,0,1-.465-1.089l1.774-.8a2.1,2.1,0,0,0,.262.708,2,2,0,0,0,.478.562,1.284,1.284,0,0,0,.784.318,2.063,2.063,0,0,0,.939-.276l.073-.042,2.437-8.864,1.96,1.567-1.714,5.911,5.4-2.964Z" transform="translate(-1719.66 -483.258)" fill="#fff"/>
    </g>
  </g>
</svg>
